<svg class="diagram-root" style="background: #f5f6f6" xmlns="http://www.w3.org/2000/svg" xmlns:xlink="http://www.w3.org/1999/xlink"><style>.diagram-root { font-family: "Helvetica Neue", sans-serif; font-size: 12px; } .t { overflow: visible; } .t-bg { y: 40; fill: #fff;   } .th { fill: #005aa0;   } .tht { fill: #fff; font-size: 14px;  } .tf { fill: #323c46; overflow: visible; } .tf.pk { fill: #005aa0; font-weight: bold; } .tf.fk { font-weight: bold; } .ty { fill: #adb1b5; font-weight: normal; text-anchor: end; } .r { fill: transparent; stroke: #c3c3c3; stroke-width: 1; } .l { stroke: 1; } .i { fill: #c2c7ce; stroke: #c2c7ce; } .i.ix { fill: #afb3b6; stroke: #000; } .fa { fill: transparent; overflow: visible; } .fa .bg.hover { fill: #f7f7f7; } .c { cy: 12; r: 4; stroke: #d2d2dc; fill: #d2d2dc; } .hr { fill: transparent; stroke: #323c46; stroke-opacity: 0.035; stroke-width: 13; } .dc { stroke: #fa5a3c; fill: #fa5a3c; } .x { stroke: white; stroke-width: 1; } .hl .th { fill: #1b9bff; } .hl .tht {  } .fhl .bg { fill: #e7f4ff; } .fhls .bg {  } .r.hl { stroke: #1b9bff; } .dim { opacity: 0.25; }</style><g class="drawing-wrapper" transform="translate(-3.555555555555536, 1.1111111111111107) scale(1,1)"><g class="rs"><path d="M 275 199.76999999999998 m -1, 0 a 1,1 0 1,0 2,0 a 1,1 0 1,0 -2,0 M 275 199.76999999999998 m -0.5, 0 a 0.5,0.5 0 1,0 1,0 a 0.5,0.5 0 1,0 -1,0  M275 199.76999999999998 L275 199.76999999999998 263 199.76999999999998 M 275 205.76999999999998 m -1, 0 a 1,1 0 1,0 2,0 a 1,1 0 1,0 -2,0 M 275 205.76999999999998 m -0.5, 0 a 0.5,0.5 0 1,0 1,0 a 0.5,0.5 0 1,0 -1,0  M275 205.76999999999998 L275 205.76999999999998 268 199.76999999999998 275 193.76999999999998 M 275 193.76999999999998 m -1, 0 a 1,1 0 1,0 2,0 a 1,1 0 1,0 -2,0 M 275 193.76999999999998 m -0.5, 0 a 0.5,0.5 0 1,0 1,0 a 0.5,0.5 0 1,0 -1,0  M263 199.76999999999998 Q 240.99 199.76999999999998, 218.97 142.83 T 174.93 85.89 M 162.93 85.89 m -1, 0 a 1,1 0 1,0 2,0 a 1,1 0 1,0 -2,0 M 162.93 85.89 m -0.5, 0 a 0.5,0.5 0 1,0 1,0 a 0.5,0.5 0 1,0 -1,0  M162.93 85.89 L162.93 85.89 174.93 85.89 M168.93 91.89 L168.93 91.89 168.93 79.89" id="h3034974808" class="r"></path><path d="M 261.11 472.56 m -1, 0 a 1,1 0 1,0 2,0 a 1,1 0 1,0 -2,0 M 261.11 472.56 m -0.5, 0 a 0.5,0.5 0 1,0 1,0 a 0.5,0.5 0 1,0 -1,0  M261.11 472.56 L261.11 472.56 249.11 472.56 M 261.11 478.56 m -1, 0 a 1,1 0 1,0 2,0 a 1,1 0 1,0 -2,0 M 261.11 478.56 m -0.5, 0 a 0.5,0.5 0 1,0 1,0 a 0.5,0.5 0 1,0 -1,0  M261.11 478.56 L261.11 478.56 254.11 472.56 261.11 466.56 M 261.11 466.56 m -1, 0 a 1,1 0 1,0 2,0 a 1,1 0 1,0 -2,0 M 261.11 466.56 m -0.5, 0 a 0.5,0.5 0 1,0 1,0 a 0.5,0.5 0 1,0 -1,0  M249.11 472.56 Q 233.52 472.56, 217.92 452 T 186.73 431.44 M 174.73 431.44 m -1, 0 a 1,1 0 1,0 2,0 a 1,1 0 1,0 -2,0 M 174.73 431.44 m -0.5, 0 a 0.5,0.5 0 1,0 1,0 a 0.5,0.5 0 1,0 -1,0  M174.73 431.44 L174.73 431.44 186.73 431.44 M180.73 437.44 L180.73 437.44 180.73 425.44" id="h2726736779" class="r"></path><path d="M 524.07 299.90999999999997 m -1, 0 a 1,1 0 1,0 2,0 a 1,1 0 1,0 -2,0 M 524.07 299.90999999999997 m -0.5, 0 a 0.5,0.5 0 1,0 1,0 a 0.5,0.5 0 1,0 -1,0  M524.07 299.90999999999997 L524.07 299.90999999999997 512.07 299.90999999999997 M 524.07 305.90999999999997 m -1, 0 a 1,1 0 1,0 2,0 a 1,1 0 1,0 -2,0 M 524.07 305.90999999999997 m -0.5, 0 a 0.5,0.5 0 1,0 1,0 a 0.5,0.5 0 1,0 -1,0  M524.07 305.90999999999997 L524.07 305.90999999999997 517.07 299.90999999999997 524.07 293.90999999999997 M 524.07 293.90999999999997 m -1, 0 a 1,1 0 1,0 2,0 a 1,1 0 1,0 -2,0 M 524.07 293.90999999999997 m -0.5, 0 a 0.5,0.5 0 1,0 1,0 a 0.5,0.5 0 1,0 -1,0  M512.07 299.90999999999997 Q 488.65 299.90999999999997, 465.23 237.34 T 418.39 174.76999999999998 M 406.39 174.76999999999998 m -1, 0 a 1,1 0 1,0 2,0 a 1,1 0 1,0 -2,0 M 406.39 174.76999999999998 m -0.5, 0 a 0.5,0.5 0 1,0 1,0 a 0.5,0.5 0 1,0 -1,0  M406.39 174.76999999999998 L406.39 174.76999999999998 418.39 174.76999999999998 M412.39 180.76999999999998 L412.39 180.76999999999998 412.39 168.76999999999998" id="h3137675399" class="r"></path><path d="M 524.07 324.90999999999997 m -1, 0 a 1,1 0 1,0 2,0 a 1,1 0 1,0 -2,0 M 524.07 324.90999999999997 m -0.5, 0 a 0.5,0.5 0 1,0 1,0 a 0.5,0.5 0 1,0 -1,0  M524.07 324.90999999999997 L524.07 324.90999999999997 512.07 324.90999999999997 M 524.07 330.90999999999997 m -1, 0 a 1,1 0 1,0 2,0 a 1,1 0 1,0 -2,0 M 524.07 330.90999999999997 m -0.5, 0 a 0.5,0.5 0 1,0 1,0 a 0.5,0.5 0 1,0 -1,0  M524.07 330.90999999999997 L524.07 330.90999999999997 517.07 324.90999999999997 524.07 318.90999999999997 M 524.07 318.90999999999997 m -1, 0 a 1,1 0 1,0 2,0 a 1,1 0 1,0 -2,0 M 524.07 318.90999999999997 m -0.5, 0 a 0.5,0.5 0 1,0 1,0 a 0.5,0.5 0 1,0 -1,0  M512.07 324.90999999999997 Q 496.69 324.90999999999997, 481.3 373.74 T 450.52 422.56 M 438.52 422.56 m -1, 0 a 1,1 0 1,0 2,0 a 1,1 0 1,0 -2,0 M 438.52 422.56 m -0.5, 0 a 0.5,0.5 0 1,0 1,0 a 0.5,0.5 0 1,0 -1,0  M438.52 422.56 L438.52 422.56 450.52 422.56 M444.52 428.56 L444.52 428.56 444.52 416.56" id="h2296224473" class="r"></path></g><g class="hrs"></g><g class="ts"><svg width="137.37" height="100" x="25.56" y="28.89" id="h99212310" class="t"><rect height="40" width="137.37" class="th"></rect><text x="13" y="25" class="tht">card_holder</text><rect height="60" width="137.37" class="t-bg"></rect><text x="13" y="61" class="tf pk">id<tspan x="124.37" class="ty">int</tspan></text><path d="M7,14A2,2 0 0,1 5,12A2,2 0 0,1 7,10A2,2 0 0,1 9,12A2,2 0 0,1 7,14M12.65,10C11.83,7.67 9.61,6 7, 6A6, 6 0 0, 0 1, 12A6, 6 0 0, 0 7, 18C9.61, 18 11.83, 16.33 12.65, 14H17V18H21V14H23V10H12.65Z" class="i pk" transform="translate(91.696171875, 48) scale(0.65)"></path><text x="13" y="86" class="tf">name<tspan x="124.37" class="ty">varchar(50)</tspan></text></svg><svg width="131.39" height="100" x="275" y="117.77" id="h198306241" class="t"><rect height="40" width="131.39" class="th"></rect><text x="13" y="25" class="tht">credit_card</text><rect height="60" width="131.39" class="t-bg"></rect><text x="13" y="61" class="tf fk">card<tspan x="118.38999999999999" class="ty">int</tspan></text><text x="13" y="86" class="tf fk">cardholder_id<tspan x="118.38999999999999" class="ty">int</tspan></text></svg><svg width="145.84" height="100" x="28.89" y="374.44" id="h1670232039" class="t"><rect height="40" width="145.84" class="th"></rect><text x="13" y="25" class="tht">merchant_category</text><rect height="60" width="145.84" class="t-bg"></rect><text x="13" y="61" class="tf fk">id<tspan x="132.84" class="ty">int</tspan></text><text x="13" y="86" class="tf">name<tspan x="132.84" class="ty">varchar(50)</tspan></text></svg><svg width="177.41" height="125" x="261.11" y="365.56" id="h1481749269" class="t"><rect height="40" width="177.41" class="th"></rect><text x="13" y="25" class="tht">merchant</text><rect height="85" width="177.41" class="t-bg"></rect><text x="13" y="61" class="tf fk">id<tspan x="164.41" class="ty">int</tspan></text><text x="13" y="86" class="tf">name<tspan x="164.41" class="ty">varchar(50)</tspan></text><text x="13" y="111" class="tf fk">id_merchant_category<tspan x="164.41" class="ty">int</tspan></text></svg><svg width="124.71" height="175" x="524.07" y="167.91" id="h3007999074" class="t"><rect height="40" width="124.71" class="th"></rect><text x="13" y="25" class="tht">transaction</text><rect height="135" width="124.71" class="t-bg"></rect><text x="13" y="61" class="tf">id<tspan x="111.71" class="ty">int</tspan></text><text x="13" y="86" class="tf">date<tspan x="111.71" class="ty">datetime</tspan></text><text x="13" y="111" class="tf">amount<tspan x="111.71" class="ty">float</tspan></text><text x="13" y="136" class="tf fk">card<tspan x="111.71" class="ty">int</tspan></text><text x="13" y="161" class="tf fk">id_merchant<tspan x="111.71" class="ty">int</tspan></text></svg></g></g><text class="qdbd-link" x="10" y="20">www.quickdatabasediagrams.com</text></svg>